<?xml version="1.0" encoding="iso-8859-1"?>
<!-- Generator: Adobe Illustrator 16.0.3, SVG Export Plug-In . SVG Version: 6.00 Build 0)  -->
<!DOCTYPE svg PUBLIC "-//W3C//DTD SVG 1.1//EN" "http://www.w3.org/Graphics/SVG/1.1/DTD/svg11.dtd">
<svg version="1.1" id="Layer_1" xmlns="http://www.w3.org/2000/svg" xmlns:xlink="http://www.w3.org/1999/xlink" x="0px" y="0px"
	 width="100px" height="100px" viewBox="0 0 100 100" style="enable-background:new 0 0 100 100;" xml:space="preserve">
<g id="Layer_5">
	<rect style="fill:#16174C;" width="100" height="100"/>
	<g>
		<path style="fill:#00EEC7;" d="M49.639,33.62C32.941,26.496,13.668,31.792,0,45.462V100h70.51c0.036-0.082,0.075-0.161,0.11-0.243
			C82.02,73.037,72.626,43.427,49.639,33.62z"/>
		<g>
			<path style="fill:#FFFFFF;" d="M46.782,76.54c-2.747,6.438-11.431,10.575-18.65,7.495c-7.22-3.08-10.243-12.212-7.496-18.65
				L46.782,76.54z"/>
			<path style="fill:#FFFFFF;" d="M21.777,56.816c-0.507,1.01-1.737,1.416-2.747,0.908l0,0c-1.009-0.506-1.416-1.734-0.909-2.746
				l4.965-9.878c0.507-1.01,1.737-1.417,2.747-0.909l0,0c1.009,0.507,1.416,1.736,0.909,2.746L21.777,56.816z"/>
			<path style="fill:#FFFFFF;" d="M55.775,71.576c-0.508,1.01-1.736,1.416-2.746,0.908l0,0c-1.01-0.506-1.416-1.734-0.909-2.746
				l4.965-9.878c0.507-1.01,1.737-1.417,2.747-0.909l0,0c1.008,0.508,1.416,1.736,0.908,2.746L55.775,71.576z"/>
		</g>
	</g>
</g>
<g id="Layer_1_1_">
</g>
</svg>
