<?xml version="1.0" encoding="utf-8"?>
<!-- Generator: Adobe Illustrator 16.0.3, SVG Export Plug-In . SVG Version: 6.00 Build 0)  -->
<!DOCTYPE svg PUBLIC "-//W3C//DTD SVG 1.1//EN" "http://www.w3.org/Graphics/SVG/1.1/DTD/svg11.dtd">
<svg version="1.1" id="Layer_1" xmlns="http://www.w3.org/2000/svg" xmlns:xlink="http://www.w3.org/1999/xlink" x="0px" y="0px"
	 width="100px" height="100px" viewBox="0 0 100 100" enable-background="new 0 0 100 100" xml:space="preserve">
<g>
	<path d="M43.287,81.644c-8.994,0-17.988-0.039-26.981,0.014c-5.15,0.031-9.22-1.914-11.751-6.439
		c-2.527-4.515-2.071-9.003,0.619-13.385C16.524,43.35,27.806,24.823,39.179,6.352c5.223-8.481,16.436-8.449,21.708-0.021
		c1.48,2.368,2.921,4.761,4.378,7.143c9.917,16.216,19.849,32.422,29.742,48.652c4.557,7.474,1.442,16.36-6.628,18.985
		c-1.026,0.334-2.139,0.505-3.218,0.545c-2.214,0.079-3.777-1.295-3.823-3.197c-0.043-1.828,1.374-3.186,3.516-3.369
		c3.857-0.33,6.268-3.344,5.616-7.145c-0.144-0.835-0.538-1.672-0.984-2.405C78.161,46.975,66.829,28.413,55.456,9.877
		c-2.685-4.375-8.208-4.336-10.889,0.064c-11.29,18.523-22.552,37.063-33.789,55.618c-2.833,4.678-0.019,9.531,5.479,9.534
		c18.262,0.014,36.523,0.013,54.786-0.005c1.58-0.002,2.968,0.284,3.775,1.784c1.241,2.309-0.397,4.748-3.234,4.761
		c-6.306,0.029-12.613,0.01-18.919,0.011C49.539,81.644,46.413,81.644,43.287,81.644z"/>
	<path d="M35.493,49.728c0.267-0.832-0.137-1.466-0.609-2.101c-0.518-0.695-0.987-1.428-1.484-2.14
		c-0.354-0.506-0.393-1.05-0.197-1.613c0.731-2.101,1.824-3.994,3.268-5.689c0.427-0.5,0.935-0.743,1.594-0.688
		c1.087,0.089,2.174,0.19,3.263,0.234c0.315,0.012,0.646-0.129,0.954-0.24c1.235-0.44,1.892-1.398,2.323-2.579
		c0.191-0.529,0.481-1.021,0.713-1.536c0.298-0.659,0.777-1.012,1.512-1.139c2.134-0.369,4.255-0.365,6.386,0.011
		c0.682,0.12,1.139,0.451,1.425,1.07c0.432,0.934,0.854,1.873,1.338,2.779c0.176,0.328,0.5,0.587,0.785,0.845
		c1.015,0.914,2.221,0.883,3.468,0.702c0.598-0.087,1.207-0.103,1.811-0.147c0.566-0.042,1.027,0.172,1.395,0.593
		c1.506,1.724,2.622,3.676,3.373,5.834c0.185,0.534,0.13,1.071-0.212,1.559c-0.534,0.761-1.022,1.555-1.592,2.287
		c-0.434,0.559-0.545,1.142-0.581,1.836c-0.047,0.927,0.193,1.677,0.763,2.388c0.491,0.614,0.887,1.301,1.351,1.938
		c0.407,0.56,0.443,1.141,0.219,1.772c-0.73,2.059-1.809,3.913-3.216,5.582c-0.439,0.521-0.963,0.771-1.646,0.711
		c-1.026-0.089-2.055-0.142-3.079-0.25c-0.473-0.051-0.829,0.138-1.245,0.312c-1.112,0.465-1.719,1.306-2.12,2.386
		c-0.225,0.603-0.557,1.164-0.825,1.751c-0.284,0.625-0.759,0.933-1.436,1.055c-2.194,0.396-4.379,0.372-6.565-0.028
		c-0.577-0.105-0.983-0.435-1.235-0.966c-0.44-0.93-0.909-1.846-1.322-2.787c-0.197-0.45-0.52-0.698-0.9-0.988
		c-1.024-0.778-2.128-0.82-3.317-0.634c-0.637,0.099-1.297,0.188-1.93,0.124c-0.463-0.047-1.024-0.237-1.326-0.563
		c-1.568-1.695-2.692-3.682-3.404-5.873c-0.14-0.433-0.007-1.06,0.216-1.483c0.41-0.782,0.954-1.498,1.492-2.204
		C35.385,51.211,35.735,50.563,35.493,49.728z M41.274,49.711c-0.026,4.764,3.914,8.733,8.689,8.756
		c4.766,0.025,8.731-3.91,8.757-8.688c0.025-4.766-3.91-8.732-8.689-8.755C45.263,41.001,41.298,44.934,41.274,49.711z"/>
	<path d="M49.997,44.282c3.037,0,5.468,2.427,5.468,5.461c0.001,3.036-2.428,5.466-5.462,5.468
		c-3.034,0.001-5.467-2.429-5.468-5.462C44.534,46.714,46.962,44.283,49.997,44.282z"/>
	<path d="M20.274,64.693h-4.226l-2.114,3.661l2.114,3.66h4.226l2.114-3.66L20.274,64.693z M18.162,70.051
		c-0.938,0-1.697-0.759-1.697-1.696s0.759-1.696,1.697-1.696c0.936,0,1.696,0.76,1.696,1.696
		C19.858,69.292,19.098,70.051,18.162,70.051z"/>
	<path d="M83.953,64.693h-4.227l-2.113,3.661l2.113,3.66h4.227l2.114-3.66L83.953,64.693z M81.839,70.051
		c-0.937,0-1.696-0.759-1.696-1.696s0.76-1.696,1.696-1.696c0.937,0,1.697,0.76,1.697,1.696
		C83.536,69.292,82.777,70.051,81.839,70.051z"/>
	<path d="M52.114,10.56h-4.227l-2.114,3.661l2.114,3.659h4.227l2.114-3.659L52.114,10.56z M50,15.917
		c-0.937,0-1.697-0.759-1.697-1.696c0-0.938,0.76-1.697,1.697-1.697c0.938,0,1.697,0.76,1.697,1.697
		C51.697,15.157,50.938,15.917,50,15.917z"/>
	<path d="M15.03,99.585c-0.673-0.275-1.211-0.683-1.614-1.224c-0.402-0.541-0.614-1.192-0.637-1.954h3.012
		c0.044,0.43,0.193,0.759,0.447,0.984c0.253,0.227,0.584,0.34,0.993,0.34c0.419,0,0.75-0.095,0.993-0.29
		c0.243-0.193,0.364-0.459,0.364-0.802c0-0.287-0.097-0.524-0.29-0.711c-0.193-0.188-0.431-0.342-0.712-0.463
		c-0.281-0.122-0.682-0.26-1.2-0.415c-0.75-0.231-1.362-0.462-1.837-0.695c-0.474-0.232-0.883-0.573-1.225-1.026
		c-0.343-0.453-0.513-1.043-0.513-1.771c0-1.082,0.391-1.929,1.175-2.541s1.804-0.919,3.062-0.919c1.28,0,2.312,0.307,3.095,0.919
		c0.783,0.612,1.202,1.464,1.258,2.557H18.34c-0.022-0.375-0.16-0.669-0.414-0.885c-0.254-0.214-0.579-0.323-0.977-0.323
		c-0.342,0-0.618,0.092-0.827,0.273c-0.21,0.183-0.315,0.445-0.315,0.787c0,0.376,0.176,0.668,0.529,0.877
		c0.353,0.21,0.905,0.436,1.655,0.679c0.75,0.253,1.36,0.496,1.829,0.728c0.469,0.231,0.875,0.568,1.216,1.009
		c0.342,0.442,0.513,1.009,0.513,1.705c0,0.662-0.168,1.264-0.504,1.804c-0.336,0.541-0.825,0.971-1.465,1.291
		c-0.639,0.32-1.396,0.48-2.267,0.48C16.464,99.999,15.703,99.862,15.03,99.585z"/>
	<path d="M23.554,90.987c0.496-0.899,1.188-1.599,2.077-2.102c0.888-0.502,1.895-0.752,3.02-0.752c1.38,0,2.56,0.363,3.542,1.092
		c0.981,0.728,1.638,1.722,1.969,2.979h-3.111c-0.232-0.486-0.561-0.854-0.985-1.108s-0.908-0.381-1.448-0.381
		c-0.872,0-1.578,0.304-2.118,0.91c-0.541,0.608-0.812,1.419-0.812,2.434c0,1.016,0.271,1.826,0.812,2.433
		c0.54,0.608,1.247,0.911,2.118,0.911c0.541,0,1.023-0.126,1.448-0.38c0.425-0.252,0.753-0.624,0.985-1.109h3.111
		c-0.331,1.258-0.988,2.248-1.969,2.971c-0.982,0.722-2.163,1.083-3.542,1.083c-1.125,0-2.131-0.25-3.02-0.752
		c-0.888-0.501-1.582-1.199-2.077-2.094c-0.497-0.893-0.745-1.914-0.745-3.062C22.809,92.91,23.057,91.888,23.554,90.987z"/>
	<path d="M41.825,99.883l-2.417-4.386h-0.679v4.386H35.9V88.266h4.75c0.916,0,1.697,0.159,2.342,0.479
		c0.645,0.32,1.127,0.759,1.448,1.315c0.32,0.558,0.48,1.178,0.48,1.862c0,0.773-0.218,1.463-0.654,2.069
		c-0.436,0.607-1.078,1.038-1.928,1.292l2.681,4.601H41.825L41.825,99.883z M38.729,93.495h1.755c0.519,0,0.907-0.127,1.167-0.38
		c0.259-0.254,0.389-0.613,0.389-1.077c0-0.44-0.13-0.787-0.389-1.042c-0.26-0.254-0.648-0.381-1.167-0.381h-1.755V93.495z"/>
	<path d="M53.923,97.831h-4.336l-0.695,2.052h-2.962l4.204-11.618h3.277l4.203,11.618h-2.996L53.923,97.831z M53.195,95.647
		l-1.44-4.254l-1.424,4.254H53.195z"/>
	<path d="M67.278,93.851c-0.308,0.558-0.783,1.007-1.423,1.349c-0.64,0.342-1.434,0.512-2.383,0.512h-1.754v4.171h-2.83V88.266
		h4.584c0.926,0,1.71,0.159,2.351,0.479c0.64,0.32,1.12,0.761,1.439,1.324c0.32,0.564,0.48,1.208,0.48,1.937
		C67.742,92.678,67.587,93.293,67.278,93.851z M64.465,93.081c0.266-0.254,0.397-0.612,0.397-1.076c0-0.462-0.131-0.821-0.397-1.076
		c-0.265-0.254-0.667-0.38-1.208-0.38h-1.54v2.913h1.54C63.798,93.462,64.2,93.335,64.465,93.081z"/>
	<path d="M75.504,88.266v6.95c0,0.696,0.171,1.231,0.513,1.605c0.342,0.375,0.844,0.564,1.506,0.564
		c0.662,0,1.169-0.188,1.522-0.564c0.353-0.374,0.529-0.91,0.529-1.605v-6.95h2.831V95.2c0,1.037-0.221,1.914-0.662,2.631
		c-0.442,0.718-1.035,1.257-1.78,1.622c-0.745,0.364-1.575,0.546-2.49,0.546c-0.916,0-1.735-0.179-2.458-0.537
		c-0.723-0.36-1.294-0.9-1.713-1.624c-0.419-0.722-0.628-1.603-0.628-2.639v-6.934H75.504z"/>
	<path d="M87.222,88.266v11.618h-2.831V88.266H87.222z"/>
</g>
</svg>
