<?xml version="1.0" encoding="utf-8"?>
<!-- Generator: Adobe Illustrator 16.0.3, SVG Export Plug-In . SVG Version: 6.00 Build 0)  -->
<!DOCTYPE svg PUBLIC "-//W3C//DTD SVG 1.1//EN" "http://www.w3.org/Graphics/SVG/1.1/DTD/svg11.dtd">
<svg version="1.1" id="Layer_1" xmlns="http://www.w3.org/2000/svg" xmlns:xlink="http://www.w3.org/1999/xlink" x="0px" y="0px"
	 width="430px" height="25px" viewBox="0 0 430 25" enable-background="new 0 0 430 25" xml:space="preserve">
<g>
	<path opacity="0.5" d="M427.655,12.976c0.508,0.024-3.442,0.602-2.895,1.072c-0.18-0.021-2.831,0.449-2.907,0.963
		c-0.794-1.374-3.744-2.97-3.08-0.415c-0.423-0.806-2.677,0.483-2.92,0.167c0.166,0.808-2.882,0.446-3.017-0.101
		c0.412,1.386-2.881-0.366-2.881,1.238c0-0.886-3.186-2.564-3.186-2.087c0,1.242-2.745,4.424-2.745,2.739
		c0-0.187-3.13-2.458-3.13-1.491c0,0.298-2.423-1.941-2.423,1.584c0,1.279-2.565,0.637-2.565-0.585c0-0.348-2.259-2.866-2.259-1.285
		c0,0.333-3.363,1.237-3.363-0.928c0-1.691-3.379-1.277-3.379-1.38c0-0.558-3.192-0.763-3.192-1.111c0,0.455-3.11,2.11-3.11,1.12
		c0,0.09-2.899,0.083-2.899,1.515c0,0.637-3.027-1.054-3.027,0.208c0,0.362-2.991,0.35-2.991,1.109c0-1.086-3.022-1.567-3.022-1.963
		c0,1.242-3.111,3.969-3.111,1.893c0-0.961-2.745-2.974-2.745-2.897c0,1.73-3.039-1.801-3.039,0.348c0,0.59-2.929-0.534-2.929-0.561
		c0,1.493-2.71-0.888-2.71-1.605c0-2.087-3.186,0.991-3.186,0.623c0-0.385-2.961,1.769-2.961-0.486c0-1.068-2.5-4.309-2.5-2.288
		c0-1.348-2.946-0.323-2.946-0.53c0,0.696-3.404-0.424-3.404,1.173c0-0.625-2.625-1.106-2.625-1.788
		c0,1.005-3.136-1.113-3.136,0.191c0-0.577-2.979-0.117-2.979-0.363c0,0.164-2.734-0.287-2.734-1.439
		c0,0.727-2.865-0.425-2.865-0.594c0-0.052-2.728-0.749-2.728-1.435c0,1.05-2.9-1.277-2.9-0.541c0,0.66-2.924,0.783-2.924-0.387
		c0,0.174-3.046,0.094-3.046,0.819c0-0.611-2.902-0.024-2.902-0.39c0-0.762-2.857-0.455-2.857-1.346
		c0-0.259-2.937,1.608-2.937,1.479c0-1.546-2.975,0.505-2.975-0.754c0,0.554-2.947,1.046-2.947,0.697
		c0-0.578-2.914,1.276-2.914-0.544c0-1.068-2.901,0.265-2.901,0.601c0,1.351-3.625-1.235-3.625-1.618c0-0.905-3.08,3.714-3.08,2.448
		c0-1.858-3.213,0.451-3.213,0.782c0,0.293-2.773,1.737-2.773,1.954c0-0.906-3.061,0.738-3.061,0.782c0,0.16-3.3,1.716-3.3-1.016
		c0,0.231-2.915,2.699-2.915,2.674c0-0.46-3.096-2.091-3.096-1.589c0-0.21-3.035-0.384-3.035-0.502c0-0.35-3.28-0.01-3.28,0.115
		c0,0.194-2.691-4.498-2.691-2.392c0,1.006-2.989-2.542-2.989-1.888c0,0.182-3.485,2.057-3.643,1.865
		c-0.346,0.46-2.517-0.122-2.886,0.374c-0.597-1.049-3.125,0.557-3.37,0.997c-0.314-2.988-2.604,0.101-3.038,1.376
		c-0.55-1.198-1.563-1.417-2.063-1.26V5.966c-0.896,0.247-2.635,0.63-2.831,0.891c1.49-1.187-1.989-3.459-3.145-1.939
		c0.357-0.835-2.544,1.308-3.01,1.104c-0.043,1.194-2.739,2.522-3.005,1.012c-0.057,0.896-2.134,1.178-3.008,0.785
		c-0.064,0.791-2.883,0.183-3.088,0.431c-0.396-0.497-3.2-1.79-3.2-1.694c0,1.315-3.02,0.237-3.02,0.76
		c0-0.517-3.063,0.426-3.063,0.746c0-0.496-3.07-0.845-3.07-0.69c0,0.514-3.284,1.863-3.284,1.043c0-0.11-2.808-3.748-2.808-3.057
		c0-0.297-3.209-0.116-3.209,0.196c0-0.063-3.168,0.153-3.168-0.257c0-1.545-3.018-1.036-3.018-1.097c0-1.691-3.52,0.257-3.52,1.586
		c0-2.741-2.828-3.442-2.828-2.26c0,0.5-3.396,1.658-3.396,1.562c0-0.458-2.898-3.755-2.898-3.26c0-0.426-3.271,0.286-3.271,0.5
		c0,0.687-3.123,0.545-3.123,1.552c0-0.216-3.021-0.204-3.021,0.486c0,1.153-2.597,2.888-2.597,1.573
		c0,0.033-1.052,1.876-1.052,2.781c0,0.401-2.853,0.917-2.853,2.059c0,1.26-3.34-1.279-3.34-1.352c0,0.913-3.063,0.025-3.063,0.543
		c0,0.567-3.146,0.867-3.146,1.507c0,0.05-3.111,0.282-3.111-0.889c0,0.725-2.904-2.629-2.904-2.111
		c0-0.642-3.072,0.121-3.072-0.203c0-1.741-2.941,0.091-2.941-1.116c0,1.74-3.151,1.074-3.151,0.135c0-0.055-3.264-0.05-3.264,0.662
		c0-0.277-2.808-2.269-2.808-1.901c0,0.552-3.207,0.282-3.207,0.367c0-0.673-3.095-0.84-3.095-0.228c0-0.441-2.98,0.986-2.98-1.142
		c0,0.383-3.12,0.959-3.12-0.029c0-1.052-3.123,1.481-3.123,0.52c0,0.102-3.062-1.19-3.062,0.356c0-0.133-3.186-2.324-3.186-1.414
		c0-2.123-2.972-0.955-2.972,0.961c0-1.357-2.936,0.469-2.936,0.858c0-0.364-2.848,0.226-2.848,1.146
		c0-0.245-3.029,1.016-3.029,0.362c0-0.085-3.032,2.313-3.032,0.404c0,0.026-2.682,1.815-2.682,1.766
		c0,0.61-3.196,0.115-3.196-0.239c0-0.842-2.678,1.246-2.678,2.021c0,1.453-3.012,1.413-3.012,0.741
		c0,0.602-3.331-3.676-3.331-1.754c0-0.052-2.903,1.726-2.903,2.283c0,0.199-3.096-0.619-3.096-1.248
		c0,1.622-2.904-1.216-2.904-1.183c0-1.191-2.708-1.814-2.708-1.304c0,1.027-2.908,0.588-2.908-0.392
		c0-1.201-2.775-1.895-2.775-1.436c0,1.647-3.253-1.673-3.253-0.292c0-0.482-3.082,3.467-3.082,1.355
		c0,1.259-2.888-0.216-2.888,0.901c0,0.146-2.544,3.422-2.544,1.624c0,3.169-2.127,1.978-2.127,2.291
		c0-1.289-3.184-0.043-3.184,0.414c0,0.473-2.316,1.921-2.316,2.113c0,1.529-3.193,1.295-3.193,0.635c0,0-3.29,0.119-3.29-0.279
		c0-0.683-2.958-0.563-2.958,1.119c0,2.153-3.145,2.447-3.145,1.765c0,0.576-3.281,2.423-3.281-0.291
		c0,1.633-2.827-0.126-2.827-2.408c0-0.864-2.726,0.629-2.726-1.576c0,0.768-2.66-1.125-2.66-1.397c0,0.158-3.949,3.718-3.949,0.816
		c0,0.021-1.571-1.622-1.571-4.084c0.314-1.465-3.688,4.355-3.552,2.538c-0.099,0.619-2.372-1.555-3.078,0.395
		c-0.633-0.226-2.498-0.817-3.102-1.383c0.19,0.152-3.375,1.86-3.085-0.117c-0.547-0.81-1.704-0.108-3.096-1.027
		C1.393,10.637,0.678,10.928,0,11.139v3c0.678-0.211,1.393-0.502,1.73-0.556c1.392,0.919,2.549,0.218,3.096,1.027
		c-0.291,1.978,3.275,0.27,3.085,0.117c0.604,0.565,2.469,1.157,3.102,1.383c0.707-1.949,2.979,0.225,3.078-0.395
		c-0.135,1.817,3.867-4.003,3.552-2.538c0,2.462,1.571,4.105,1.571,4.084c0,2.901,3.949-0.658,3.949-0.816
		c0,0.272,2.66,2.165,2.66,1.397c0,2.205,2.726,0.712,2.726,1.576c0,2.282,2.827,4.041,2.827,2.408c0,2.714,3.281,0.867,3.281,0.291
		c0,0.683,3.145,0.389,3.145-1.765c0-1.682,2.958-1.802,2.958-1.119c0,0.398,3.29,0.279,3.29,0.279c0,0.66,3.193,0.895,3.193-0.635
		c0-0.192,2.316-1.641,2.316-2.113c0-0.457,3.184-1.703,3.184-0.414c0-0.313,2.127,0.878,2.127-2.291
		c0,1.798,2.544-1.479,2.544-1.624c0-1.117,2.888,0.357,2.888-0.901c0,2.111,3.082-1.838,3.082-1.355
		c0-1.381,3.253,1.939,3.253,0.292c0-0.459,2.775,0.234,2.775,1.436c0,0.979,2.908,1.419,2.908,0.392
		c0-0.511,2.708,0.112,2.708,1.304c0-0.033,2.904,2.805,2.904,1.183c0,0.629,3.096,1.447,3.096,1.248
		c0-0.558,2.903-2.335,2.903-2.283c0-1.922,3.331,2.355,3.331,1.754c0,0.672,3.012,0.712,3.012-0.741
		c0-0.774,2.678-2.862,2.678-2.021c0,0.354,3.196,0.85,3.196,0.239c0,0.05,2.682-1.739,2.682-1.766c0,1.909,3.032-0.489,3.032-0.404
		c0,0.653,3.029-0.607,3.029-0.362c0-0.921,2.848-1.511,2.848-1.146c0-0.39,2.936-2.216,2.936-0.858
		c0-1.916,2.972-3.084,2.972-0.961c0-0.91,3.186,1.281,3.186,1.414c0-1.547,3.062-0.255,3.062-0.356c0,0.962,3.123-1.571,3.123-0.52
		c0,0.988,3.12,0.412,3.12,0.029c0,2.128,2.98,0.7,2.98,1.142c0-0.612,3.095-0.445,3.095,0.228c0-0.085,3.207,0.185,3.207-0.367
		c0-0.367,2.808,1.624,2.808,1.901c0-0.712,3.264-0.717,3.264-0.662c0,0.939,3.151,1.605,3.151-0.135
		c0,1.207,2.941-0.625,2.941,1.116c0,0.324,3.072-0.438,3.072,0.203c0-0.518,2.904,2.836,2.904,2.111
		c0,1.171,3.111,0.938,3.111,0.889c0-0.64,3.146-0.939,3.146-1.507c0-0.518,3.063,0.37,3.063-0.543c0,0.072,3.34,2.611,3.34,1.352
		c0-1.142,2.853-1.657,2.853-2.059c0-0.905,1.052-2.748,1.052-2.781c0,1.314,2.597-0.42,2.597-1.573c0-0.69,3.021-0.702,3.021-0.486
		c0-1.007,3.123-0.865,3.123-1.552c0-0.214,3.271-0.926,3.271-0.5c0-0.495,2.898,2.802,2.898,3.26c0,0.097,3.396-1.062,3.396-1.562
		c0-1.183,2.828-0.481,2.828,2.26c0-1.329,3.52-3.277,3.52-1.586c0,0.061,3.018-0.448,3.018,1.097c0,0.41,3.168,0.194,3.168,0.257
		c0-0.313,3.209-0.493,3.209-0.196c0-0.691,2.808,2.946,2.808,3.057c0,0.82,3.284-0.529,3.284-1.043c0-0.154,3.07,0.194,3.07,0.69
		c0-0.32,3.063-1.263,3.063-0.746c0-0.522,3.02,0.556,3.02-0.76c0-0.096,2.804,1.197,3.2,1.694c0.205-0.248,3.023,0.36,3.088-0.431
		c0.874,0.393,2.951,0.11,3.008-0.785c0.266,1.511,2.962,0.183,3.005-1.012c0.466,0.203,3.367-1.939,3.01-1.104
		c1.155-1.52,4.635,0.753,3.145,1.939c0.196-0.26,1.935-0.644,2.831-0.891v0.358c0.5-0.157,1.514,0.062,2.063,1.26
		c0.434-1.275,2.724-4.365,3.038-1.376c0.246-0.44,2.773-2.045,3.37-0.997c0.369-0.496,2.54,0.086,2.886-0.374
		c0.157,0.192,3.643-1.683,3.643-1.865c0-0.655,2.989,2.894,2.989,1.888c0-2.106,2.691,2.586,2.691,2.392
		c0-0.125,3.28-0.465,3.28-0.115c0,0.118,3.035,0.292,3.035,0.502c0-0.502,3.096,1.129,3.096,1.589c0,0.025,2.915-2.443,2.915-2.674
		c0,2.732,3.3,1.176,3.3,1.016c0-0.043,3.061-1.688,3.061-0.782c0-0.217,2.773-1.661,2.773-1.954c0-0.331,3.213-2.64,3.213-0.782
		c0,1.267,3.08-3.353,3.08-2.448c0,0.383,3.625,2.969,3.625,1.618c0-0.336,2.901-1.669,2.901-0.601c0,1.82,2.914-2.034,2.914-1.456
		c0,0.35,2.947,1.857,2.947,1.303c0,1.259,2.975-2.792,2.975-1.246c0,0.129,2.937,0.261,2.937,0.521
		c0,0.891,2.857,0.584,2.857,1.346c0,0.366,2.902-0.221,2.902,0.39c0-0.725,3.046-0.645,3.046-0.819c0,1.17,2.924,1.046,2.924,0.387
		c0-0.736,2.9,1.591,2.9,0.541c0,0.686,2.728,1.382,2.728,1.435c0,0.169,2.865,1.321,2.865,0.594c0,1.152,2.734,1.603,2.734,1.439
		c0,0.247,2.979-0.213,2.979,0.363c0-1.304,3.136,0.814,3.136-0.191c0,0.682,2.625,1.164,2.625,1.788
		c0-1.597,3.404-0.477,3.404-1.173c0,0.207,2.946-0.817,2.946,0.53c0-2.021,2.5,1.219,2.5,2.288c0,2.254,2.961,0.101,2.961,0.486
		c0,0.368,3.186-2.71,3.186-0.623c0,0.718,2.71,3.099,2.71,1.605c0,0.027,2.929,1.151,2.929,0.561c0-2.149,3.039,1.382,3.039-0.348
		c0-0.076,2.745,1.936,2.745,2.897c0,2.077,3.111-0.651,3.111-1.893c0,0.396,3.022,0.876,3.022,1.963
		c0-0.76,2.991-0.748,2.991-1.109c0-1.262,3.027,0.429,3.027-0.208c0-1.433,2.899-1.425,2.899-1.515c0,0.99,3.11-0.665,3.11-1.12
		c0,0.348,3.192,0.553,3.192,1.111c0,0.103,3.379-0.311,3.379,1.38c0,2.165,3.363,1.26,3.363,0.928c0-1.581,2.259,0.937,2.259,1.285
		c0,1.223,2.565,1.865,2.565,0.585c0-3.526,2.423-1.287,2.423-1.584c0-0.967,3.13,1.305,3.13,1.491c0,1.685,2.745-1.498,2.745-2.739
		c0-0.477,3.186,1.201,3.186,2.087c0-1.604,3.293,0.148,2.881-1.238c0.135,0.547,3.183,0.909,3.017,0.101
		c0.243,0.317,2.497-0.973,2.92-0.167c-0.664-2.555,2.286-0.958,3.08,0.415c0.076-0.515,2.728-0.985,2.907-0.963
		c-0.548-0.471,3.402-1.048,2.895-1.072c0.14-0.103,1.514-1.544,2.345-1.778v-3C429.169,11.432,427.795,12.873,427.655,12.976z"/>
	<path fill="#FFFFFF" d="M4.826,11.611c-0.291,1.978,3.275,0.27,3.085,0.117c0.604,0.565,2.469,1.157,3.102,1.383
		c0.707-1.949,2.979,0.225,3.078-0.395c-0.135,1.817,3.867-4.003,3.552-2.538c0,2.462,1.571,4.105,1.571,4.084
		c0,2.901,3.949-0.658,3.949-0.816c0,0.272,2.66,2.165,2.66,1.397c0,2.205,2.726,0.712,2.726,1.576c0,2.282,2.827,4.041,2.827,2.408
		c0,2.714,3.281,0.867,3.281,0.291c0,0.683,3.145,0.389,3.145-1.765c0-1.682,2.958-1.802,2.958-1.119c0,0.398,3.29,0.279,3.29,0.279
		c0,0.66,3.193,0.895,3.193-0.635c0-0.192,2.316-1.641,2.316-2.113c0-0.457,3.184-1.703,3.184-0.414
		c0-0.313,2.127,0.878,2.127-2.291c0,1.798,2.544-1.479,2.544-1.624c0-1.117,2.888,0.357,2.888-0.901
		c0,2.111,3.082-1.838,3.082-1.355c0-1.381,3.253,1.939,3.253,0.292c0-0.459,2.775,0.234,2.775,1.436
		c0,0.979,2.908,1.419,2.908,0.392c0-0.511,2.708,0.112,2.708,1.304c0-0.033,2.904,2.805,2.904,1.183
		c0,0.629,3.096,1.447,3.096,1.248c0-0.558,2.903-2.335,2.903-2.283c0-1.922,3.331,2.355,3.331,1.754
		c0,0.672,3.012,0.712,3.012-0.741c0-0.774,2.678-2.862,2.678-2.021c0,0.354,3.196,0.85,3.196,0.239c0,0.05,2.682-1.739,2.682-1.766
		c0,1.909,3.032-0.489,3.032-0.404c0,0.653,3.029-0.607,3.029-0.362c0-0.921,2.848-1.511,2.848-1.146
		c0-0.39,2.936-2.216,2.936-0.858c0-1.916,2.972-3.084,2.972-0.961c0-0.91,3.186,1.281,3.186,1.414c0-1.547,3.062-0.255,3.062-0.356
		c0,0.962,3.123-1.571,3.123-0.52c0,0.988,3.12,0.412,3.12,0.029c0,2.128,2.98,0.7,2.98,1.142c0-0.612,3.095-0.445,3.095,0.228
		c0-0.085,3.207,0.185,3.207-0.367c0-0.367,2.808,1.624,2.808,1.901c0-0.712,3.264-0.717,3.264-0.662
		c0,0.939,3.151,1.605,3.151-0.135c0,1.207,2.941-0.625,2.941,1.116c0,0.324,3.072-0.438,3.072,0.203
		c0-0.518,2.904,2.836,2.904,2.111c0,1.171,3.111,0.938,3.111,0.889c0-0.64,3.146-0.939,3.146-1.507c0-0.518,3.063,0.37,3.063-0.543
		c0,0.072,3.34,2.611,3.34,1.352c0-1.142,2.853-1.657,2.853-2.059c0-0.905,1.052-2.748,1.052-2.781c0,1.314,2.597-0.42,2.597-1.573
		c0-0.69,3.021-0.702,3.021-0.486c0-1.007,3.123-0.865,3.123-1.552c0-0.214,3.271-0.926,3.271-0.5c0-0.495,2.898,2.802,2.898,3.26
		c0,0.097,3.396-1.062,3.396-1.562c0-1.183,2.828-0.481,2.828,2.26c0-1.329,3.52-3.277,3.52-1.586c0,0.061,3.018-0.448,3.018,1.097
		c0,0.41,3.168,0.194,3.168,0.257c0-0.313,3.209-0.493,3.209-0.196c0-0.691,2.808,2.946,2.808,3.057c0,0.82,3.284-0.529,3.284-1.043
		c0-0.154,3.07,0.194,3.07,0.69c0-0.32,3.063-1.263,3.063-0.746c0-0.522,3.02,0.556,3.02-0.76c0-0.096,2.804,1.197,3.2,1.694
		c0.205-0.248,3.023,0.36,3.088-0.431c0.874,0.393,2.951,0.11,3.008-0.785c0.266,1.511,2.962,0.183,3.005-1.012
		c0.466,0.203,3.367-1.939,3.01-1.104c1.155-1.52,4.635,0.753,3.145,1.939c0.196-0.26,1.935-0.644,2.831-0.891v0.358
		c0.5-0.157,1.514,0.062,2.063,1.26c0.434-1.275,2.724-4.365,3.038-1.376c0.246-0.44,2.773-2.045,3.37-0.997
		c0.369-0.496,2.54,0.086,2.886-0.374c0.157,0.192,3.643-1.683,3.643-1.865c0-0.655,2.989,2.894,2.989,1.888
		c0-2.106,2.691,2.586,2.691,2.392c0-0.125,3.28-0.465,3.28-0.115c0,0.118,3.035,0.292,3.035,0.502c0-0.502,3.096,1.129,3.096,1.589
		c0,0.025,2.915-2.443,2.915-2.674c0,2.732,3.3,1.176,3.3,1.016c0-0.043,3.061-1.688,3.061-0.782c0-0.217,2.773-1.661,2.773-1.954
		c0-0.331,3.213-2.64,3.213-0.782c0,1.267,3.08-3.353,3.08-2.448c0,0.383,3.625,2.969,3.625,1.618c0-0.336,2.901-1.669,2.901-0.601
		c0,1.82,2.914-0.034,2.914,0.544c0,0.35,2.947-0.143,2.947-0.697c0,1.259,2.975-0.792,2.975,0.754c0,0.129,2.937-1.739,2.937-1.479
		c0,0.891,2.857,0.584,2.857,1.346c0,0.366,2.902-0.221,2.902,0.39c0-0.725,3.046-0.645,3.046-0.819c0,1.17,2.924,1.046,2.924,0.387
		c0-0.736,2.9,1.591,2.9,0.541c0,0.686,2.728,1.382,2.728,1.435c0,0.169,2.865,1.321,2.865,0.594c0,1.152,2.734,1.603,2.734,1.439
		c0,0.247,2.979-0.213,2.979,0.363c0-1.304,3.136,0.814,3.136-0.191c0,0.682,2.625,1.164,2.625,1.788
		c0-1.597,3.404-0.477,3.404-1.173c0,0.207,2.946-0.817,2.946,0.53c0-2.021,2.5,1.219,2.5,2.288c0,2.254,2.961,0.101,2.961,0.486
		c0,0.368,3.186-2.71,3.186-0.623c0,0.718,2.71,3.099,2.71,1.605c0,0.027,2.929,1.151,2.929,0.561c0-2.149,3.039,1.382,3.039-0.348
		c0-0.076,2.745,1.936,2.745,2.897c0,2.077,3.111-0.651,3.111-1.893c0,0.396,3.022,0.876,3.022,1.963
		c0-0.76,2.991-0.748,2.991-1.109c0-1.262,3.027,0.429,3.027-0.208c0-1.433,2.899-1.425,2.899-1.515c0,0.99,3.11-0.665,3.11-1.12
		c0,0.348,3.192,0.553,3.192,1.111c0,0.103,3.379-0.311,3.379,1.38c0,2.165,3.363,1.26,3.363,0.928c0-1.581,2.259,0.937,2.259,1.285
		c0,1.223,2.565,1.865,2.565,0.585c0-3.526,2.423-1.287,2.423-1.584c0-0.967,3.13,1.305,3.13,1.491c0,1.685,2.745-1.498,2.745-2.739
		c0-0.477,3.186,1.201,3.186,2.087c0-1.604,3.293,0.148,2.881-1.238c0.135,0.547,3.183,0.909,3.017,0.101
		c0.243,0.317,2.497-0.973,2.92-0.167c-0.664-2.555,2.286-0.958,3.08,0.415c0.076-0.515,2.728-0.985,2.907-0.963
		c-0.548-0.471,3.402-1.048,2.895-1.072c0.14-0.103,1.514-1.544,2.345-1.778V0H240.731h-0.029H0v11.139
		c0.678-0.211,1.393-0.502,1.73-0.556C3.122,11.502,4.279,10.801,4.826,11.611z"/>
</g>
</svg>
